<svg width="336" height="224" viewBox="0 0 336 224" fill="none" xmlns="http://www.w3.org/2000/svg">
<g clip-path="url(#clip0_65_491)">
<path d="M102.309 155.176C89.6694 176.146 78.2444 197.777 68.0867 219.971C129.298 205.088 172.449 203.058 172.449 203.058C193.795 157.663 220.831 114.974 252.949 75.9496C216.067 79.3183 179.457 85.0487 143.36 93.1029C126.327 116.51 112.669 137.813 102.309 155.176Z" fill="white"/>
<path d="M184.178 13.8008C97.2067 30.3377 52.6711 55.5189 52.6711 55.5189C25.34 81.1812 9.03778 103.01 0 117.262C20.1359 107.865 40.8359 99.6421 61.9889 92.6368C86.2964 84.5489 111.021 77.6844 136.064 72.0709C150.096 53.4443 166.118 33.7503 184.178 13.8008Z" fill="white"/>
<path d="M163.722 66.298C199.966 59.37 236.625 54.6552 273.482 52.1815C304.484 18.0403 327.896 0 327.896 0C289.687 0.396351 251.552 3.34495 213.764 8.8247C195.129 28.2631 178.453 47.6864 163.722 66.298Z" fill="white"/>
</g>
<defs>
<clipPath id="clip0_65_491">
<rect width="336" height="224" fill="white"/>
</clipPath>
</defs>
</svg>
