<svg width="20" height="21" viewBox="0 0 20 21" fill="none" xmlns="http://www.w3.org/2000/svg">
<path d="M8.2705 1V3.75473L6.97908 4.44341L5.04196 2.37736L2.45914 5.13209L4.39626 7.19814L3.75055 8.5755H1.16772V12.7076H3.75055L4.39626 14.085L2.45914 16.151L5.04196 18.9057L6.97908 16.8397L8.2705 17.5284V20.2831H12.1447V17.5284L13.4361 16.8397L15.3733 18.9057L17.9561 16.151L16.019 14.085L16.6647 12.7076H19.2475V8.5755H16.6647L16.019 7.19814L17.9561 5.13209L15.3733 2.37736L13.4361 4.44341L12.1447 3.75473V1H8.2705Z" stroke="white" stroke-linecap="round" stroke-linejoin="round"/>
<path d="M10.2076 13.3963C11.634 13.3963 12.7904 12.163 12.7904 10.6416C12.7904 9.12017 11.634 7.88684 10.2076 7.88684C8.78113 7.88684 7.62476 9.12017 7.62476 10.6416C7.62476 12.163 8.78113 13.3963 10.2076 13.3963Z" stroke="white" stroke-linecap="round" stroke-linejoin="round"/>
</svg>
