<svg width="24" height="24" viewBox="0 0 24 24" fill="none" xmlns="http://www.w3.org/2000/svg">
<path d="M12 12C11.7167 12 11.4793 11.904 11.288 11.712C11.096 11.5207 11 11.2833 11 11V3C11 2.71667 11.096 2.479 11.288 2.287C11.4793 2.09567 11.7167 2 12 2C12.2833 2 12.521 2.09567 12.713 2.287C12.9043 2.479 13 2.71667 13 3V11C13 11.2833 12.9043 11.5207 12.713 11.712C12.521 11.904 12.2833 12 12 12ZM12 21C10.75 21 9.57933 20.7627 8.488 20.288C7.396 19.8127 6.446 19.1707 5.638 18.362C4.82933 17.554 4.18733 16.604 3.712 15.512C3.23733 14.4207 3 13.25 3 12C3 10.95 3.171 9.946 3.513 8.988C3.85433 8.02933 4.33333 7.16667 4.95 6.4C5.13333 6.16667 5.36667 6.054 5.65 6.062C5.93333 6.07067 6.18333 6.18333 6.4 6.4C6.58333 6.58333 6.66667 6.80833 6.65 7.075C6.63333 7.34167 6.54167 7.59167 6.375 7.825C5.94167 8.40833 5.60433 9.054 5.363 9.762C5.121 10.4707 5 11.2167 5 12C5 13.95 5.67933 15.604 7.038 16.962C8.396 18.3207 10.05 19 12 19C13.95 19 15.604 18.3207 16.962 16.962C18.3207 15.604 19 13.95 19 12C19 11.2167 18.8793 10.4623 18.638 9.737C18.396 9.01233 18.05 8.35833 17.6 7.775C17.4333 7.55833 17.3417 7.32067 17.325 7.062C17.3083 6.804 17.3917 6.58333 17.575 6.4C17.775 6.2 18.0167 6.09567 18.3 6.087C18.5833 6.079 18.8167 6.18333 19 6.4C19.6333 7.16667 20.125 8.02933 20.475 8.988C20.825 9.946 21 10.95 21 12C21 13.25 20.7627 14.4207 20.288 15.512C19.8127 16.604 19.171 17.554 18.363 18.362C17.5543 19.1707 16.6043 19.8127 15.513 20.288C14.421 20.7627 13.25 21 12 21Z" fill="white"/>
</svg>
