<svg width="27" height="27" viewBox="0 0 27 27" fill="none" xmlns="http://www.w3.org/2000/svg">
<path d="M10.625 1V4.5L8.875 5.375L6.25 2.75L2.75 6.25L5.375 8.875L4.5 10.625H1V15.875H4.5L5.375 17.625L2.75 20.25L6.25 23.75L8.875 21.125L10.625 22V25.5H15.875V22L17.625 21.125L20.25 23.75L23.75 20.25L21.125 17.625L22 15.875H25.5V10.625H22L21.125 8.875L23.75 6.25L20.25 2.75L17.625 5.375L15.875 4.5V1H10.625Z" stroke="#FAFAFA" stroke-width="2" stroke-linecap="round" stroke-linejoin="round"/>
<path d="M13.25 16.75C15.183 16.75 16.75 15.183 16.75 13.25C16.75 11.317 15.183 9.75 13.25 9.75C11.317 9.75 9.75 11.317 9.75 13.25C9.75 15.183 11.317 16.75 13.25 16.75Z" stroke="#FAFAFA" stroke-width="2" stroke-linecap="round" stroke-linejoin="round"/>
</svg>
