<svg width="34" height="34" viewBox="0 0 34 34" fill="none" xmlns="http://www.w3.org/2000/svg">
<path d="M15.4062 23.9062C15.4062 24.3289 15.5742 24.7343 15.873 25.0332C16.1719 25.3321 16.5773 25.5 17 25.5C17.4227 25.5 17.8281 25.3321 18.1269 25.0332C18.4258 24.7343 18.5937 24.3289 18.5937 23.9062C18.5937 23.4836 18.4258 23.0782 18.1269 22.7793C17.8281 22.4804 17.4227 22.3125 17 22.3125C16.5773 22.3125 16.1719 22.4804 15.873 22.7793C15.5742 23.0782 15.4062 23.4836 15.4062 23.9062ZM15.9375 13.8125V19.9219C15.9375 20.068 16.057 20.1875 16.2031 20.1875H17.7969C17.943 20.1875 18.0625 20.068 18.0625 19.9219V13.8125C18.0625 13.6664 17.943 13.5469 17.7969 13.5469H16.2031C16.057 13.5469 15.9375 13.6664 15.9375 13.8125ZM31.7322 28.4219L17.9197 4.51562C17.7139 4.16035 17.3586 3.98438 17 3.98438C16.6414 3.98438 16.2828 4.16035 16.0803 4.51562L2.26776 28.4219C1.85936 29.1324 2.37069 30.0156 3.18749 30.0156H30.8125C31.6293 30.0156 32.1406 29.1324 31.7322 28.4219ZM5.71757 27.4955L17 7.96543L28.2824 27.4955H5.71757Z" fill="white"/>
</svg>
