<svg width="108" height="70" viewBox="0 0 108 70" fill="none" xmlns="http://www.w3.org/2000/svg">
<path fill-rule="evenodd" clip-rule="evenodd" d="M0.625 35.0001C0.625 33.9889 1.02667 33.0192 1.74166 32.3042C2.45664 31.5892 3.42636 31.1876 4.4375 31.1876H94.3591L70.3632 7.19931C69.6474 6.48342 69.2452 5.51247 69.2452 4.50005C69.2452 3.48764 69.6474 2.51669 70.3632 1.8008C71.0791 1.08492 72.0501 0.682739 73.0625 0.682739C74.0749 0.682739 75.0459 1.08492 75.7618 1.8008L106.262 32.3008C106.617 32.655 106.898 33.0757 107.091 33.5388C107.283 34.002 107.382 34.4986 107.382 35.0001C107.382 35.5015 107.283 35.9981 107.091 36.4613C106.898 36.9244 106.617 37.3452 106.262 37.6993L75.7618 68.1993C75.0459 68.9152 74.0749 69.3174 73.0625 69.3174C72.0501 69.3174 71.0791 68.9152 70.3632 68.1993C69.6474 67.4834 69.2452 66.5125 69.2452 65.5001C69.2452 64.4876 69.6474 63.5167 70.3632 62.8008L94.3591 38.8126H4.4375C3.42636 38.8126 2.45664 38.4109 1.74166 37.6959C1.02667 36.9809 0.625 36.0112 0.625 35.0001V35.0001Z" fill="#9E9E9E"/>
</svg>
