<svg width="23" height="23" viewBox="0 0 23 23" fill="none" xmlns="http://www.w3.org/2000/svg">
<path d="M11.5001 15.0938C10.7893 15.0938 10.0945 14.883 9.50352 14.4881C8.91254 14.0932 8.45191 13.5319 8.17991 12.8753C7.90791 12.2186 7.83674 11.496 7.97541 10.7989C8.11407 10.1018 8.45634 9.46143 8.95894 8.95884C9.46153 8.45624 10.1019 8.11397 10.799 7.9753C11.4961 7.83664 12.2187 7.90781 12.8754 8.17981C13.532 8.45181 14.0933 8.91243 14.4882 9.50342C14.8831 10.0944 15.0939 10.7892 15.0939 11.5C15.091 12.4522 14.7115 13.3647 14.0381 14.038C13.3648 14.7114 12.4524 15.0909 11.5001 15.0938V15.0938ZM19.259 11.5C19.2571 11.1642 19.2325 10.8289 19.1853 10.4964L21.3726 8.78402C21.4678 8.70536 21.532 8.59539 21.5537 8.47376C21.5753 8.35213 21.553 8.22677 21.4907 8.12008L19.4216 4.54789C19.3587 4.44214 19.2606 4.36196 19.1444 4.32145C19.0282 4.28095 18.9014 4.28271 18.7864 4.32643L16.2147 5.35963C15.6791 4.94725 15.0931 4.60502 14.4708 4.34125L14.0863 1.6109C14.0647 1.4886 14.0014 1.37757 13.9071 1.29678C13.8128 1.21599 13.6934 1.17046 13.5692 1.16797H9.431C9.30911 1.17034 9.19162 1.21396 9.09771 1.29172C9.0038 1.36947 8.93902 1.47676 8.91395 1.59607L8.52942 4.32643C7.9054 4.58714 7.31894 4.92992 6.78555 5.3457L4.21378 4.3125C4.09882 4.26874 3.97211 4.26691 3.85593 4.30734C3.73976 4.34776 3.64155 4.42785 3.57858 4.53352L1.50948 8.10525C1.4472 8.21195 1.42489 8.33731 1.44653 8.45894C1.46817 8.58057 1.53236 8.69054 1.62762 8.7692L3.81487 10.4816C3.76822 10.8191 3.74361 11.1593 3.7412 11.5C3.74307 11.8358 3.76768 12.1711 3.81487 12.5036L1.62762 14.216C1.53236 14.2946 1.46817 14.4046 1.44653 14.5262C1.42489 14.6479 1.4472 14.7732 1.50948 14.8799L3.57858 18.4521C3.64148 18.5579 3.73966 18.638 3.85584 18.6785C3.97202 18.7191 4.09876 18.7173 4.21378 18.6736L6.78555 17.6404C7.32108 18.0527 7.90711 18.395 8.52942 18.6588L8.91395 21.3891C8.93547 21.5114 8.9988 21.6224 9.09311 21.7032C9.18741 21.784 9.30685 21.8295 9.431 21.832H13.5692C13.6911 21.8297 13.8086 21.786 13.9025 21.7083C13.9964 21.6305 14.0612 21.5232 14.0863 21.4039L14.4708 18.6736C15.0956 18.413 15.6828 18.0703 16.2169 17.6543L18.7864 18.6875C18.9014 18.7313 19.0281 18.7331 19.1443 18.6927C19.2605 18.6522 19.3587 18.5722 19.4216 18.4665L21.4907 14.8943C21.553 14.7876 21.5753 14.6622 21.5537 14.5406C21.532 14.419 21.4678 14.309 21.3726 14.2304L19.1853 12.5179C19.232 12.1806 19.2566 11.8405 19.259 11.5V11.5Z" fill="white"/>
</svg>
