<svg width="22" height="22" viewBox="0 0 22 22" fill="none" xmlns="http://www.w3.org/2000/svg">
<path d="M11 20.625C8.44729 20.625 5.99913 19.6109 4.1941 17.8059C2.38906 16.0009 1.375 13.5527 1.375 11C1.375 8.44729 2.38906 5.99913 4.1941 4.1941C5.99913 2.38906 8.44729 1.375 11 1.375C13.5527 1.375 16.0009 2.38906 17.8059 4.1941C19.6109 5.99913 20.625 8.44729 20.625 11C20.625 13.5527 19.6109 16.0009 17.8059 17.8059C16.0009 19.6109 13.5527 20.625 11 20.625ZM11 22C13.9174 22 16.7153 20.8411 18.7782 18.7782C20.8411 16.7153 22 13.9174 22 11C22 8.08262 20.8411 5.28473 18.7782 3.22183C16.7153 1.15893 13.9174 0 11 0C8.08262 0 5.28473 1.15893 3.22183 3.22183C1.15893 5.28473 0 8.08262 0 11C0 13.9174 1.15893 16.7153 3.22183 18.7782C5.28473 20.8411 8.08262 22 11 22V22Z" fill="white"/>
<path d="M8.62263 6.95061C8.73508 6.8927 8.86133 6.86694 8.98747 6.87616C9.11362 6.88538 9.23479 6.92922 9.33763 7.00286L14.1501 10.4404C14.2392 10.504 14.3119 10.5879 14.362 10.6853C14.4121 10.7826 14.4383 10.8905 14.4383 11C14.4383 11.1095 14.4121 11.2174 14.362 11.3147C14.3119 11.412 14.2392 11.496 14.1501 11.5596L9.33763 14.9971C9.23482 15.0707 9.11372 15.1145 8.98763 15.1237C8.86155 15.1329 8.73536 15.1072 8.62295 15.0494C8.51054 14.9915 8.41625 14.9038 8.35045 14.7959C8.28466 14.6879 8.2499 14.5639 8.25 14.4375V7.56248C8.24987 7.43609 8.28458 7.31212 8.35031 7.20417C8.41605 7.09623 8.51027 7.00849 8.62263 6.95061V6.95061Z" fill="white"/>
</svg>
