<svg width="28" height="28" viewBox="0 0 28 28" fill="none" xmlns="http://www.w3.org/2000/svg">
<path d="M11.5034 20.9999C11.3435 20.9994 11.1853 20.966 11.0388 20.9017C10.8923 20.8375 10.7605 20.7439 10.6518 20.6266L4.98177 14.5949C4.76981 14.369 4.65627 14.0682 4.66612 13.7586C4.67596 13.449 4.80839 13.156 5.03427 12.9441C5.26014 12.7321 5.56097 12.6186 5.87056 12.6284C6.18015 12.6383 6.47315 12.7707 6.6851 12.9966L11.4918 18.1182L21.3034 7.3849C21.403 7.26091 21.5269 7.15858 21.6674 7.0842C21.808 7.00983 21.9623 6.96497 22.1208 6.95239C22.2793 6.93981 22.4387 6.95977 22.5893 7.01104C22.7398 7.06231 22.8782 7.14382 22.9961 7.25055C23.114 7.35728 23.2088 7.48698 23.2748 7.6317C23.3407 7.77641 23.3763 7.93307 23.3795 8.09206C23.3827 8.25105 23.3533 8.40901 23.2933 8.55624C23.2332 8.70347 23.1436 8.83687 23.0301 8.94823L12.3668 20.6149C12.259 20.7343 12.1277 20.8302 11.9812 20.8964C11.8346 20.9627 11.6759 20.9979 11.5151 20.9999H11.5034Z" fill="white"/>
</svg>
