<svg width="32" height="32" viewBox="0 0 32 32" fill="none" xmlns="http://www.w3.org/2000/svg">
<path d="M15 12H17V30H15V12ZM11.33 18.22C10.5951 17.5634 10.0071 16.759 9.60457 15.8595C9.20199 14.9599 8.9939 13.9855 8.9939 13C8.9939 12.0145 9.20199 11.0401 9.60457 10.1406C10.0071 9.24104 10.5951 8.43664 11.33 7.78003L12.67 9.27003C12.1446 9.73905 11.7242 10.3138 11.4364 10.9566C11.1486 11.5994 10.9998 12.2957 10.9998 13C10.9998 13.7043 11.1486 14.4007 11.4364 15.0435C11.7242 15.6863 12.1446 16.261 12.67 16.73L11.33 18.22ZM20.67 18.22L19.33 16.73C19.8554 16.261 20.2758 15.6863 20.5637 15.0435C20.8515 14.4007 21.0003 13.7043 21.0003 13C21.0003 12.2957 20.8515 11.5994 20.5637 10.9566C20.2758 10.3138 19.8554 9.73905 19.33 9.27003L20.67 7.78003C21.4049 8.43664 21.9929 9.24104 22.3955 10.1406C22.7981 11.0401 23.0062 12.0145 23.0062 13C23.0062 13.9855 22.7981 14.9599 22.3955 15.8595C21.9929 16.759 21.4049 17.5634 20.67 18.22Z" fill="white"/>
<path d="M8.4 21.8C7.03384 20.7754 5.92501 19.4468 5.1613 17.9194C4.3976 16.392 4 14.7077 4 13C4 11.2923 4.3976 9.60807 5.1613 8.08066C5.92501 6.55325 7.03384 5.22463 8.4 4.20001L9.6 5.80001C8.48224 6.63834 7.575 7.72539 6.95016 8.97509C6.32531 10.2248 6 11.6028 6 13C6 14.3972 6.32531 15.7752 6.95016 17.0249C7.575 18.2746 8.48224 19.3617 9.6 20.2L8.4 21.8ZM23.6 21.8L22.4 20.2C23.5178 19.3617 24.425 18.2746 25.0498 17.0249C25.6747 15.7752 26 14.3972 26 13C26 11.6028 25.6747 10.2248 25.0498 8.97509C24.425 7.72539 23.5178 6.63834 22.4 5.80001L23.6 4.20001C24.9662 5.22463 26.075 6.55325 26.8387 8.08066C27.6024 9.60807 28 11.2923 28 13C28 14.7077 27.6024 16.392 26.8387 17.9194C26.075 19.4468 24.9662 20.7754 23.6 21.8Z" fill="white"/>
</svg>
