<svg width="32" height="32" viewBox="0 0 32 32" fill="none" xmlns="http://www.w3.org/2000/svg">
<path d="M26 13C26.0052 15.3281 25.0989 17.5657 23.475 19.234L24.888 20.647C25.977 19.5282 26.8148 18.19 27.3456 16.7217C27.8763 15.2534 28.0879 13.6888 27.9661 12.1323C27.8443 10.5758 27.3919 9.06314 26.6392 7.69529C25.8865 6.32745 24.8508 5.13585 23.601 4.20001L22.399 5.80001C23.5209 6.63453 24.4312 7.72077 25.0567 8.97132C25.6821 10.2219 26.0053 11.6018 26 13Z" fill="white"/>
<path d="M21 13C20.9981 14.0218 20.6833 15.0185 20.098 15.856L21.525 17.284C22.6136 15.8868 23.1306 14.1282 22.9713 12.3642C22.812 10.6001 21.9883 8.96256 20.667 7.783L19.333 9.273C19.857 9.7423 20.2763 10.3167 20.5636 10.9589C20.8508 11.6011 20.9995 12.2965 21 13ZM30 28.586L3.414 2L2 3.414L5.71 7.124C4.2274 9.4595 3.68083 12.2685 4.17954 14.9895C4.67825 17.7105 6.18549 20.1431 8.4 21.801L9.6 20.201C7.84961 18.893 6.637 16.9909 6.18992 14.852C5.74285 12.7131 6.09207 10.4846 7.172 8.585L9.369 10.782C8.93045 12.0773 8.88283 13.4729 9.23208 14.7951C9.58133 16.1172 10.312 17.3073 11.333 18.217L12.667 16.727C12.1429 16.2577 11.7236 15.6833 11.4364 15.0411C11.1491 14.399 11.0005 13.7035 11 13C11.0031 12.8174 11.0165 12.6351 11.04 12.454L15 16.414V30H17V18.414L28.586 30L30 28.586Z" fill="white"/>
</svg>
