<svg width="37" height="37" viewBox="0 0 37 37" fill="none" xmlns="http://www.w3.org/2000/svg">
<path d="M31.7969 4.04688H5.20312C4.56357 4.04688 4.04688 4.56357 4.04688 5.20312V31.7969C4.04688 32.4364 4.56357 32.9531 5.20312 32.9531H31.7969C32.4364 32.9531 32.9531 32.4364 32.9531 31.7969V5.20312C32.9531 4.56357 32.4364 4.04688 31.7969 4.04688ZM30.3516 30.3516H6.64844V6.64844H30.3516V30.3516ZM12.2852 24.6787V27.4609C12.2852 27.6199 12.4152 27.75 12.5742 27.75H14.3086C14.4676 27.75 14.5977 27.6199 14.5977 27.4609V24.6787C14.2327 24.7979 13.8461 24.8594 13.4414 24.8594C13.0367 24.8594 12.6501 24.7943 12.2852 24.6787ZM14.5977 17.5244V9.53906C14.5977 9.38008 14.4676 9.25 14.3086 9.25H12.5742C12.4152 9.25 12.2852 9.38008 12.2852 9.53906V17.5244C12.6501 17.4052 13.0367 17.3438 13.4414 17.3438C13.8461 17.3438 14.2327 17.4088 14.5977 17.5244ZM12.2852 24.6787C12.6501 24.7979 13.0367 24.8594 13.4414 24.8594C13.8461 24.8594 14.2327 24.7943 14.5977 24.6787C16.108 24.1909 17.1992 22.7745 17.1992 21.1016C17.1992 19.4286 16.108 18.0122 14.5977 17.5244C14.2327 17.4052 13.8461 17.3438 13.4414 17.3438C13.0367 17.3438 12.6501 17.4088 12.2852 17.5244C10.7748 18.0122 9.68359 19.4286 9.68359 21.1016C9.68359 22.7745 10.7748 24.1909 12.2852 24.6787ZM12.2888 20.4981C12.2996 20.4765 12.3141 20.4548 12.3249 20.4331V20.4295L12.3683 20.3645C12.3719 20.3572 12.3755 20.3536 12.3791 20.3464C12.3899 20.3283 12.4044 20.3139 12.4152 20.2958C12.4188 20.2922 12.4225 20.285 12.4261 20.2813C12.4441 20.2597 12.4586 20.2416 12.4767 20.2235L12.4875 20.2127L12.5309 20.1693L12.5453 20.1549C12.5634 20.1368 12.5814 20.1224 12.6031 20.1043C12.6248 20.0862 12.6429 20.0718 12.6646 20.0573C12.6718 20.0537 12.6754 20.0501 12.6826 20.0465C12.7007 20.0356 12.7151 20.0212 12.7332 20.0104C12.7368 20.0067 12.744 20.0031 12.7477 19.9995C12.7693 19.9851 12.791 19.9742 12.8163 19.9598C12.8199 19.9562 12.8271 19.9562 12.8308 19.9525C12.8488 19.9417 12.8669 19.9345 12.8886 19.9236L12.9103 19.9128C12.9355 19.902 12.9572 19.8911 12.9825 19.8839C13.0078 19.873 13.0331 19.8658 13.0584 19.8586C13.0656 19.855 13.0729 19.855 13.0801 19.8514C13.1018 19.8441 13.1198 19.8405 13.1415 19.8369C13.1487 19.8369 13.1523 19.8333 13.1596 19.8333C13.1849 19.8261 13.2138 19.8225 13.2391 19.8188C13.2463 19.8188 13.2499 19.8188 13.2571 19.8152C13.2788 19.8116 13.3005 19.8116 13.3222 19.808H13.3438C13.3728 19.808 13.398 19.8044 13.427 19.8044C13.4559 19.8044 13.4812 19.8044 13.5101 19.808H13.5317C13.5534 19.808 13.5751 19.8116 13.5968 19.8152C13.604 19.8152 13.6076 19.8152 13.6148 19.8188C13.6401 19.8225 13.669 19.8261 13.6943 19.8333C13.7016 19.8333 13.7052 19.8369 13.7124 19.8369C13.7341 19.8405 13.7558 19.8478 13.7738 19.8514C13.7811 19.855 13.7883 19.855 13.7955 19.8586C13.8208 19.8658 13.8461 19.873 13.8714 19.8839C13.8967 19.8911 13.9184 19.902 13.9437 19.9128L13.9653 19.9236C13.9834 19.9309 14.0051 19.9417 14.0231 19.9525C14.0268 19.9562 14.034 19.9562 14.0376 19.9598C14.0593 19.9706 14.0846 19.9851 14.1062 19.9995C14.1099 20.0031 14.1171 20.0067 14.1207 20.0104C14.1388 20.0212 14.1568 20.032 14.1713 20.0465C14.1785 20.0501 14.1821 20.0537 14.1894 20.0573C14.211 20.0718 14.2327 20.0898 14.2508 20.1043C14.2688 20.1188 14.2905 20.1368 14.3086 20.1549L14.323 20.1693L14.3664 20.2127L14.3772 20.2235C14.3953 20.2416 14.4134 20.2633 14.4278 20.2813C14.4314 20.285 14.4351 20.2922 14.4387 20.2958C14.4531 20.3103 14.464 20.3283 14.4748 20.3464C14.4784 20.3536 14.482 20.3572 14.4856 20.3645L14.529 20.4295C14.529 20.4295 14.529 20.4331 14.5326 20.4331C14.6531 20.6353 14.7168 20.8662 14.7169 21.1016C14.7169 21.3184 14.6627 21.5243 14.5688 21.705C14.5579 21.7267 14.5435 21.7483 14.5326 21.77C14.5326 21.77 14.5326 21.7736 14.529 21.7736L14.4856 21.8387C14.482 21.8459 14.4784 21.8495 14.4748 21.8567C14.464 21.8748 14.4495 21.8893 14.4387 21.9073C14.4351 21.9109 14.4314 21.9182 14.4278 21.9218C14.4098 21.9435 14.3953 21.9615 14.3772 21.9796L14.3664 21.9904L14.323 22.0338L14.3086 22.0482C14.2905 22.0663 14.2725 22.0808 14.2508 22.0988C14.2291 22.1169 14.211 22.1313 14.1894 22.1458C14.1821 22.1494 14.1785 22.153 14.1713 22.1566C14.1532 22.1675 14.1388 22.1819 14.1207 22.1928C14.1171 22.1964 14.1099 22.2 14.1062 22.2036C14.0846 22.2181 14.0629 22.2289 14.0376 22.2434C14.034 22.247 14.0268 22.247 14.0231 22.2506C14.0051 22.2614 13.987 22.2687 13.9653 22.2795L13.9437 22.2903C13.9184 22.3012 13.8967 22.312 13.8714 22.3192C13.8461 22.3301 13.8208 22.3373 13.7955 22.3445C13.7883 22.3481 13.7811 22.3481 13.7738 22.3518C13.7521 22.359 13.7341 22.3626 13.7124 22.3662C13.7052 22.3662 13.7016 22.3698 13.6943 22.3698C13.669 22.3771 13.6401 22.3807 13.6148 22.3843C13.6076 22.3843 13.604 22.3843 13.5968 22.3879C13.5751 22.3915 13.5534 22.3915 13.5317 22.3951H13.5101C13.4812 22.3951 13.4559 22.3987 13.427 22.3987C13.398 22.3987 13.3728 22.3987 13.3438 22.3951H13.3222C13.3005 22.3951 13.2788 22.3915 13.2571 22.3879C13.2499 22.3879 13.2463 22.3879 13.2391 22.3843C13.2138 22.3807 13.1849 22.3771 13.1596 22.3698C13.1523 22.3698 13.1487 22.3662 13.1415 22.3662C13.1198 22.3626 13.0981 22.3554 13.0801 22.3518C13.0729 22.3481 13.0656 22.3481 13.0584 22.3445C13.0331 22.3373 13.0078 22.3301 12.9825 22.3192C12.9572 22.312 12.9355 22.3012 12.9103 22.2903L12.8886 22.2795C12.8705 22.2723 12.8488 22.2614 12.8308 22.2506C12.8271 22.247 12.8199 22.247 12.8163 22.2434C12.7946 22.2325 12.7693 22.2181 12.7477 22.2036C12.744 22.2 12.7368 22.1964 12.7332 22.1928C12.7151 22.1819 12.6971 22.1711 12.6826 22.1566C12.6754 22.153 12.6718 22.1494 12.6646 22.1458C12.6429 22.1313 12.6212 22.1133 12.6031 22.0988C12.5851 22.0844 12.5634 22.0663 12.5453 22.0482L12.5309 22.0338L12.4875 21.9904L12.4767 21.9796C12.4586 21.9615 12.4405 21.9398 12.4261 21.9218C12.4225 21.9182 12.4188 21.9109 12.4152 21.9073C12.4008 21.8929 12.3899 21.8748 12.3791 21.8567C12.3755 21.8495 12.3719 21.8459 12.3683 21.8387L12.3249 21.7736V21.77C12.3104 21.7483 12.2996 21.7267 12.2888 21.705C12.1948 21.5243 12.1406 21.3184 12.1406 21.1016C12.1406 20.8848 12.1948 20.6788 12.2888 20.4981ZM22.4023 19.4756V27.4609C22.4023 27.6199 22.5324 27.75 22.6914 27.75H24.4258C24.5848 27.75 24.7148 27.6199 24.7148 27.4609V19.4756C24.3499 19.5948 23.9633 19.6562 23.5586 19.6562C23.1539 19.6562 22.7673 19.5912 22.4023 19.4756ZM24.7148 12.3213V9.53906C24.7148 9.38008 24.5848 9.25 24.4258 9.25H22.6914C22.5324 9.25 22.4023 9.38008 22.4023 9.53906V12.3213C22.7673 12.2021 23.1539 12.1406 23.5586 12.1406C23.9633 12.1406 24.3499 12.2057 24.7148 12.3213ZM22.4023 19.4756C22.7673 19.5948 23.1539 19.6562 23.5586 19.6562C23.9633 19.6562 24.3499 19.5912 24.7148 19.4756C26.2252 18.9878 27.3164 17.5714 27.3164 15.8984C27.3164 14.2255 26.2252 12.8091 24.7148 12.3213C24.3499 12.2021 23.9633 12.1406 23.5586 12.1406C23.1539 12.1406 22.7673 12.2057 22.4023 12.3213C20.892 12.8091 19.8008 14.2255 19.8008 15.8984C19.8008 17.5714 20.892 18.9878 22.4023 19.4756ZM22.406 15.295C22.4168 15.2733 22.4312 15.2517 22.4421 15.23V15.2264L22.4854 15.1613C22.4891 15.1541 22.4927 15.1505 22.4963 15.1433C22.5071 15.1252 22.5216 15.1107 22.5324 15.0927C22.536 15.0891 22.5396 15.0818 22.5433 15.0782C22.5613 15.0565 22.5758 15.0385 22.5938 15.0204L22.6047 15.0096L22.648 14.9662L22.6625 14.9518C22.6806 14.9337 22.6986 14.9192 22.7203 14.9012C22.742 14.8831 22.7601 14.8687 22.7817 14.8542C22.789 14.8506 22.7926 14.847 22.7998 14.8434C22.8179 14.8325 22.8323 14.8181 22.8504 14.8072C22.854 14.8036 22.8612 14.8 22.8648 14.7964C22.8865 14.7819 22.9082 14.7711 22.9335 14.7566C22.9371 14.753 22.9443 14.753 22.9479 14.7494C22.966 14.7386 22.9841 14.7313 23.0058 14.7205L23.0274 14.7097C23.0527 14.6988 23.0744 14.688 23.0997 14.6808C23.125 14.6699 23.1503 14.6627 23.1756 14.6555C23.1828 14.6519 23.19 14.6519 23.1973 14.6482C23.2189 14.641 23.237 14.6374 23.2587 14.6338C23.2659 14.6338 23.2695 14.6302 23.2768 14.6302C23.3021 14.6229 23.331 14.6193 23.3563 14.6157C23.3635 14.6157 23.3671 14.6157 23.3743 14.6121C23.396 14.6085 23.4177 14.6085 23.4394 14.6049H23.461C23.4899 14.6049 23.5152 14.6013 23.5441 14.6013C23.573 14.6013 23.5983 14.6013 23.6272 14.6049H23.6489C23.6706 14.6049 23.6923 14.6085 23.714 14.6121C23.7212 14.6121 23.7248 14.6121 23.732 14.6157C23.7573 14.6193 23.7862 14.6229 23.8115 14.6302C23.8188 14.6302 23.8224 14.6338 23.8296 14.6338C23.8513 14.6374 23.8729 14.6446 23.891 14.6482C23.8982 14.6519 23.9055 14.6519 23.9127 14.6555C23.938 14.6627 23.9633 14.6699 23.9886 14.6808C24.0139 14.688 24.0355 14.6988 24.0608 14.7097L24.0825 14.7205C24.1006 14.7277 24.1223 14.7386 24.1403 14.7494C24.1439 14.753 24.1512 14.753 24.1548 14.7566C24.1765 14.7675 24.2018 14.7819 24.2234 14.7964C24.2271 14.8 24.2343 14.8036 24.2379 14.8072C24.256 14.8181 24.274 14.8289 24.2885 14.8434C24.2957 14.847 24.2993 14.8506 24.3065 14.8542C24.3282 14.8687 24.3499 14.8867 24.368 14.9012C24.386 14.9156 24.4077 14.9337 24.4258 14.9518L24.4402 14.9662L24.4836 15.0096L24.4944 15.0204C24.5125 15.0385 24.5306 15.0602 24.545 15.0782C24.5486 15.0818 24.5522 15.0891 24.5559 15.0927C24.5703 15.1071 24.5812 15.1252 24.592 15.1433C24.5956 15.1505 24.5992 15.1541 24.6028 15.1613L24.6462 15.2264V15.23C24.7667 15.4321 24.8303 15.6631 24.8305 15.8984C24.8305 16.1152 24.7763 16.3212 24.6823 16.5019C24.6715 16.5235 24.657 16.5452 24.6462 16.5669V16.5705L24.6028 16.6355C24.5992 16.6428 24.5956 16.6464 24.592 16.6536C24.5812 16.6717 24.5667 16.6861 24.5559 16.7042C24.5522 16.7078 24.5486 16.715 24.545 16.7187C24.527 16.7403 24.5125 16.7584 24.4944 16.7765L24.4836 16.7873L24.4402 16.8307L24.4258 16.8451C24.4077 16.8632 24.3896 16.8776 24.368 16.8957C24.3463 16.9138 24.3282 16.9282 24.3065 16.9427C24.2993 16.9463 24.2957 16.9499 24.2885 16.9535C24.2704 16.9644 24.256 16.9788 24.2379 16.9896C24.2343 16.9933 24.2271 16.9969 24.2234 17.0005C24.2018 17.0149 24.1801 17.0258 24.1548 17.0402C24.1512 17.0438 24.1439 17.0438 24.1403 17.0475C24.1223 17.0583 24.1042 17.0655 24.0825 17.0764L24.0608 17.0872C24.0355 17.098 24.0139 17.1089 23.9886 17.1161C23.9633 17.127 23.938 17.1342 23.9127 17.1414C23.9055 17.145 23.8982 17.145 23.891 17.1486C23.8693 17.1559 23.8513 17.1595 23.8296 17.1631C23.8224 17.1631 23.8188 17.1667 23.8115 17.1667C23.7862 17.1739 23.7573 17.1775 23.732 17.1812C23.7248 17.1812 23.7212 17.1812 23.714 17.1848C23.6923 17.1884 23.6706 17.1884 23.6489 17.192H23.6272C23.5983 17.192 23.573 17.1956 23.5441 17.1956C23.5152 17.1956 23.4899 17.1956 23.461 17.192H23.4394C23.4177 17.192 23.396 17.1884 23.3743 17.1848C23.3671 17.1848 23.3635 17.1848 23.3563 17.1812C23.331 17.1775 23.3021 17.1739 23.2768 17.1667C23.2695 17.1667 23.2659 17.1631 23.2587 17.1631C23.237 17.1595 23.2153 17.1522 23.1973 17.1486C23.19 17.145 23.1828 17.145 23.1756 17.1414C23.1503 17.1342 23.125 17.127 23.0997 17.1161C23.0744 17.1089 23.0527 17.098 23.0274 17.0872L23.0058 17.0764C22.9877 17.0691 22.966 17.0583 22.9479 17.0475C22.9443 17.0438 22.9371 17.0438 22.9335 17.0402C22.9118 17.0294 22.8865 17.0149 22.8648 17.0005C22.8612 16.9969 22.854 16.9933 22.8504 16.9896C22.8323 16.9788 22.8143 16.968 22.7998 16.9535C22.7926 16.9499 22.789 16.9463 22.7817 16.9427C22.7601 16.9282 22.7384 16.9102 22.7203 16.8957C22.7022 16.8813 22.6806 16.8632 22.6625 16.8451L22.648 16.8307L22.6047 16.7873L22.5938 16.7765C22.5758 16.7584 22.5577 16.7367 22.5433 16.7187C22.5396 16.715 22.536 16.7078 22.5324 16.7042C22.518 16.6897 22.5071 16.6717 22.4963 16.6536C22.4927 16.6464 22.4891 16.6428 22.4854 16.6355L22.4421 16.5705V16.5669C22.4276 16.5452 22.4168 16.5235 22.406 16.5019C22.312 16.3212 22.2578 16.1152 22.2578 15.8984C22.2578 15.6816 22.312 15.4757 22.406 15.295Z" fill="white"/>
</svg>
