<svg width="34" height="28" viewBox="0 0 34 28" fill="none" xmlns="http://www.w3.org/2000/svg">
<path d="M24.18 8.32007L18.27 14.1301C17.6325 13.823 16.9069 13.7511 16.2215 13.9272C15.5362 14.1033 14.9351 14.516 14.5246 15.0924C14.114 15.6688 13.9204 16.3717 13.978 17.077C14.0356 17.7823 14.3407 18.4445 14.8393 18.9467C15.3379 19.4488 15.9979 19.7585 16.7028 19.8211C17.4077 19.8837 18.112 19.6951 18.6912 19.2886C19.2705 18.8822 19.6874 18.284 19.8684 17.5999C20.0493 16.9158 19.9826 16.1898 19.68 15.5501L25.6 9.74007L24.18 8.32007Z" fill="white"/>
<path d="M17 0.250011C13.8527 0.246405 10.7701 1.14355 8.11631 2.83548C5.46249 4.52742 3.34829 6.94347 2.02339 9.7983C0.6985 12.6531 0.218258 15.8275 0.639386 18.9465C1.06051 22.0655 2.36542 24.9988 4.39999 27.4L4.69999 27.75H29.3L29.6 27.4C31.6346 24.9988 32.9395 22.0655 33.3606 18.9465C33.7817 15.8275 33.3015 12.6531 31.9766 9.7983C30.6517 6.94347 28.5375 4.52742 25.8837 2.83548C23.2299 1.14355 20.1473 0.246405 17 0.250011ZM28.34 25.75H5.65999C3.86567 23.5047 2.78273 20.7748 2.54999 17.91H5.99999V15.91H2.54999C2.71746 12.7347 3.93045 9.70401 5.99999 7.29001L8.44999 9.74001L9.85999 8.33001L7.42999 5.87001C9.81326 3.76355 12.8265 2.5048 16 2.29001V5.79001H18V2.30001C21.5055 2.55423 24.7986 4.07563 27.2644 6.58013C29.7303 9.08463 31.2003 12.401 31.4 15.91H27.92V17.91H31.45C31.2172 20.7748 30.1343 23.5047 28.34 25.75Z" fill="white"/>
</svg>
