<svg width="45" height="30" viewBox="0 0 45 30" fill="none" xmlns="http://www.w3.org/2000/svg">
<g clip-path="url(#clip0_3_16)">
<path d="M13.7021 20.7826C12.0093 23.591 10.4792 26.488 9.11874 29.4604C17.3167 27.4671 23.0958 27.1953 23.0958 27.1953C25.9547 21.1156 29.5756 15.3982 33.8771 10.1718C28.9375 10.623 24.0344 11.3904 19.2 12.4691C16.9187 15.604 15.0896 18.457 13.7021 20.7826Z" fill="#212121"/>
<path d="M24.6667 1.84833C13.0188 4.06309 7.05417 7.43558 7.05417 7.43558C3.39375 10.8725 1.21042 13.796 0 15.7047C2.69677 14.4462 5.4691 13.3449 8.30208 12.4067C11.5576 11.3235 14.8689 10.4042 18.2229 9.65236C20.1021 7.15772 22.2479 4.52014 24.6667 1.84833Z" fill="#212121"/>
<path d="M21.9271 8.87919C26.7812 7.95134 31.6909 7.31989 36.6271 6.98859C40.7792 2.41611 43.9146 0 43.9146 0C38.7974 0.0530827 33.69 0.447984 28.6292 1.18188C26.1333 3.78523 23.9 6.38658 21.9271 8.87919Z" fill="#212121"/>
</g>
<defs>
<clipPath id="clip0_3_16">
<rect width="45" height="30" fill="white"/>
</clipPath>
</defs>
</svg>
