<svg width="32" height="24" viewBox="0 0 32 24" fill="none" xmlns="http://www.w3.org/2000/svg">
<path d="M4.70601 0.274349C4.88717 0.0949247 5.13074 -0.00372038 5.38315 0.000107378C5.63556 0.00393513 5.87615 0.109922 6.05201 0.29476C6.24428 0.49941 6.34979 0.773144 6.34567 1.05664C6.34156 1.34014 6.22814 1.61056 6.03001 1.8093C3.44374 4.47988 1.99538 8.0847 2.00001 11.8396C2.00001 15.9015 3.66001 19.5674 6.32801 22.1678C6.43103 22.265 6.51405 22.3821 6.57223 22.5123C6.63041 22.6426 6.66258 22.7834 6.66686 22.9265C6.67114 23.0695 6.64745 23.2121 6.59717 23.3457C6.54689 23.4793 6.47102 23.6014 6.37401 23.7048C6.20196 23.8862 5.96738 23.9919 5.72013 23.9996C5.47288 24.0072 5.23247 23.9161 5.05001 23.7456C3.45376 22.2202 2.18179 20.3762 1.31307 18.328C0.444347 16.2799 -0.00258837 14.0714 1.12759e-05 11.8396C1.12759e-05 7.32043 1.80001 3.22995 4.70601 0.274349ZM25.97 1.8093C25.7721 1.61029 25.6591 1.33972 25.6553 1.05622C25.6516 0.772726 25.7575 0.499144 25.95 0.29476C26.1258 0.110542 26.3659 0.00495147 26.6179 0.00112545C26.8698 -0.00270057 27.1129 0.0955508 27.294 0.274349C28.7877 1.78954 29.9726 3.59163 30.7803 5.57662C31.588 7.56161 32.0025 9.6902 32 11.8396C32 16.5342 30.06 20.7676 26.95 23.7456C26.7675 23.9161 26.5271 24.0072 26.2799 23.9996C26.0326 23.9919 25.798 23.8862 25.626 23.7048C25.5293 23.6015 25.4537 23.4795 25.4036 23.3461C25.3535 23.2126 25.3299 23.0703 25.3342 22.9275C25.3384 22.7847 25.3705 22.6441 25.4285 22.514C25.4865 22.384 25.5693 22.267 25.672 22.1699C27.0418 20.8373 28.1318 19.2343 28.8759 17.4585C29.6199 15.6826 30.0023 13.7709 30 11.8396C30.0047 8.08408 28.5564 4.47859 25.97 1.80726V1.8093ZM8.26401 3.85862C8.44223 3.68539 8.68058 3.59151 8.92663 3.59764C9.17268 3.60376 9.40627 3.70939 9.576 3.89128C9.992 4.31584 9.95 5.01392 9.54 5.44256C7.90795 7.15499 6.99643 9.45067 7.00001 11.8396C7.00001 14.4726 8.08601 16.8486 9.828 18.5243C10.268 18.9469 10.328 19.6694 9.898 20.1083C9.73318 20.2832 9.50875 20.3867 9.2712 20.3973C9.03366 20.4079 8.80121 20.3249 8.62201 20.1654C7.48032 19.1142 6.56791 17.8297 5.94394 16.3954C5.31997 14.9611 4.99837 13.4089 5.00001 11.8396C4.99781 10.3547 5.28528 8.88436 5.84568 7.51413C6.40607 6.14389 7.22816 4.90124 8.26401 3.85862ZM22.46 5.44256C22.05 5.01392 22.008 4.31584 22.424 3.89128C22.5937 3.70939 22.8273 3.60376 23.0734 3.59764C23.3194 3.59151 23.5578 3.68539 23.736 3.85862C24.7716 4.90144 25.5935 6.14414 26.1539 7.51432C26.7142 8.88451 27.0019 10.3548 27 11.8396C27.0022 13.4091 26.681 14.9615 26.0574 16.3962C25.4338 17.8309 24.5216 19.1158 23.38 20.1675C23.2001 20.3277 22.9664 20.4107 22.7279 20.3993C22.4894 20.3879 22.2645 20.2829 22.1 20.1062C21.672 19.6694 21.732 18.9469 22.172 18.5243C23.0662 17.6666 23.7785 16.6309 24.2649 15.4811C24.7513 14.3313 25.0015 13.0919 25 11.8396C25.0036 9.45067 24.092 7.15499 22.46 5.44256ZM16 9.2881C15.337 9.2881 14.7011 9.55692 14.2322 10.0354C13.7634 10.5139 13.5 11.1629 13.5 11.8396C13.5 12.5162 13.7634 13.1652 14.2322 13.6437C14.7011 14.1222 15.337 14.391 16 14.391C16.663 14.391 17.2989 14.1222 17.7678 13.6437C18.2366 13.1652 18.5 12.5162 18.5 11.8396C18.5 11.1629 18.2366 10.5139 17.7678 10.0354C17.2989 9.55692 16.663 9.2881 16 9.2881Z" fill="white"/>
</svg>
