<svg width="605" height="912" viewBox="0 0 605 912" fill="none" xmlns="http://www.w3.org/2000/svg">
<path d="M0 151.5C0 67.8289 67.8289 0 151.5 0H263C277.359 0 289 11.6406 289 26V348H24C10.7452 348 0 337.255 0 324V151.5Z" fill="#9E9E9E"/>
<path d="M0 400C0 384.536 12.536 372 28 372H579C593.359 372 605 383.641 605 398V644C605 792.012 485.012 912 337 912H268C119.988 912 0 792.012 0 644V400Z" fill="#9E9E9E"/>
<path d="M315 23C315 10.2975 325.297 0 338 0H453.5C537.171 0 605 67.8289 605 151.5V320C605 335.464 592.464 348 577 348H315V23Z" fill="white"/>
<path d="M360 313.5V413.5C360 445.256 334.256 471 302.5 471C270.744 471 245 445.256 245 413.5V313.5C245 281.744 270.744 256 302.5 256C334.256 256 360 281.744 360 313.5Z" fill="#9E9E9E" stroke="#434343" stroke-width="14"/>
</svg>
