<svg width="24" height="24" viewBox="0 0 24 24" fill="none" xmlns="http://www.w3.org/2000/svg">
<path d="M12 1.5C14.7848 1.5 17.4555 2.60625 19.4246 4.57538C21.3938 6.54451 22.5 9.21523 22.5 12C22.5 14.7848 21.3938 17.4555 19.4246 19.4246C17.4555 21.3938 14.7848 22.5 12 22.5C9.21523 22.5 6.54451 21.3938 4.57538 19.4246C2.60625 17.4555 1.5 14.7848 1.5 12C1.5 9.21523 2.60625 6.54451 4.57538 4.57538C6.54451 2.60625 9.21523 1.5 12 1.5V1.5ZM12 21C14.3869 21 16.6761 20.0518 18.364 18.364C20.0518 16.6761 21 14.3869 21 12C21 9.61305 20.0518 7.32387 18.364 5.63604C16.6761 3.94821 14.3869 3 12 3C9.61305 3 7.32387 3.94821 5.63604 5.63604C3.94821 7.32387 3 9.61305 3 12C3 14.3869 3.94821 16.6761 5.63604 18.364C7.32387 20.0518 9.61305 21 12 21V21ZM9.75 8.25C10.25 8.25 10.5 8.5 10.5 9V15C10.5 15.5 10.25 15.75 9.75 15.75C9.25 15.75 9 15.5 9 15V9C9 8.5 9.25 8.25 9.75 8.25ZM14.25 8.25C14.75 8.25 15 8.5 15 9V15C15 15.5 14.75 15.75 14.25 15.75C13.75 15.75 13.5 15.5 13.5 15V9C13.5 8.5 13.75 8.25 14.25 8.25Z" fill="white"/>
</svg>
