<svg width="25" height="26" viewBox="0 0 25 26" fill="none" xmlns="http://www.w3.org/2000/svg">
<path d="M13.8125 13C13.8125 13.8988 13.0863 14.625 12.1875 14.625C11.2887 14.625 10.5625 13.8988 10.5625 13V1.625C10.5625 0.727695 11.2887 0 12.1875 0C13.0863 0 13.8125 0.727695 13.8125 1.625V13ZM3.25 13C3.25 17.9359 7.25156 21.9375 12.1875 21.9375C17.1234 21.9375 21.125 17.9359 21.125 13C21.125 10.2375 19.8707 7.76445 17.9004 6.12422C17.2098 5.55039 17.1133 4.52613 17.6871 3.83602C18.2609 3.1459 19.2867 3.05195 19.9773 3.62578C22.6586 5.86016 24.375 9.23203 24.375 12.9543C24.375 19.7285 18.916 25.1875 12.1875 25.1875C5.45898 25.1875 0 19.7285 0 12.9543C0 9.23203 1.71387 5.86016 4.39766 3.62578C5.08828 3.05195 6.11406 3.1459 6.68789 3.83602C7.21602 4.52613 7.16523 5.55039 6.47461 6.12422C4.5043 7.76445 3.25 10.2375 3.25 13Z" fill="#FAFAFA"/>
</svg>
