<svg width="28" height="28" viewBox="0 0 28 28" fill="none" xmlns="http://www.w3.org/2000/svg">
<path d="M8.78501 25.06C6.86605 24.1562 5.21504 22.769 3.99398 21.0345C2.77292 19.3001 2.02376 17.278 1.82001 15.1667H0.0700073C0.665007 22.3533 6.67334 28 14.0117 28L14.7817 27.965L10.3367 23.52L8.78501 25.06ZM9.82334 17.4533C9.60167 17.4533 9.39167 17.4183 9.21667 17.36C9.04242 17.3021 8.88308 17.2065 8.75001 17.08C8.62167 16.9633 8.51667 16.8233 8.44667 16.6483C8.37667 16.485 8.34167 16.2983 8.34167 16.1H6.82501C6.82501 16.52 6.90667 16.8933 7.07001 17.2083C7.23334 17.5233 7.45501 17.7917 7.72334 18.0133C8.00334 18.2233 8.31834 18.3867 8.68001 18.4917C9.03001 18.6083 9.40334 18.6667 9.80001 18.6667C10.2317 18.6667 10.64 18.6083 11.0017 18.4917C11.375 18.375 11.7017 18.2 11.97 17.9783C12.2383 17.7567 12.46 17.4767 12.6117 17.1383C12.7633 16.8 12.845 16.4267 12.845 16.0067C12.845 15.785 12.8217 15.5633 12.7633 15.3533C12.708 15.1413 12.6173 14.9402 12.495 14.7583C12.3783 14.5717 12.215 14.4083 12.0283 14.2567C11.83 14.105 11.5967 13.9883 11.3167 13.895C11.7384 13.7071 12.0983 13.4038 12.355 13.02C12.4717 12.845 12.5533 12.67 12.6117 12.4833C12.67 12.2967 12.6933 12.11 12.6933 11.9233C12.6933 11.5033 12.6233 11.13 12.4833 10.8033C12.3433 10.4767 12.145 10.2083 11.8883 9.99833C11.655 9.77667 11.34 9.61333 10.99 9.49667C10.6283 9.39167 10.2317 9.33333 9.80001 9.33333C9.38001 9.33333 8.99501 9.39167 8.63334 9.52C8.28334 9.64833 7.96834 9.82333 7.71167 10.045C7.46667 10.2667 7.26834 10.5233 7.11667 10.8267C6.97667 11.13 6.90667 11.4567 6.90667 11.8183H8.42334C8.42334 11.62 8.45834 11.445 8.52834 11.2933C8.59834 11.1417 8.69167 11.0017 8.82001 10.8967C8.94834 10.7917 9.08834 10.6983 9.26334 10.64C9.43834 10.5817 9.61334 10.5467 9.82334 10.5467C10.29 10.5467 10.64 10.6633 10.8617 10.9083C11.0833 11.1417 11.2 11.48 11.2 11.9117C11.2 12.1217 11.165 12.3083 11.1067 12.4833C11.0483 12.6583 10.9433 12.7983 10.815 12.915C10.6867 13.0317 10.5233 13.125 10.3367 13.195C10.15 13.265 9.91667 13.3 9.66001 13.3H8.76167V14.5017H9.66001C9.91667 14.5017 10.15 14.525 10.36 14.5833C10.57 14.6417 10.745 14.735 10.885 14.8517C11.025 14.98 11.1417 15.1317 11.2233 15.3183C11.305 15.505 11.34 15.7267 11.34 15.9833C11.34 16.4617 11.2 16.8233 10.9317 17.0683C10.6633 17.3367 10.29 17.4533 9.82334 17.4533ZM19.7983 10.5467C19.425 10.1617 18.9817 9.85833 18.4683 9.64833C17.955 9.43833 17.3833 9.33333 16.7533 9.33333H14V18.6667H16.6833C17.325 18.6667 17.92 18.5617 18.445 18.3517C18.97 18.1417 19.425 17.85 19.7983 17.465C20.1717 17.08 20.4633 16.6133 20.6617 16.0767C20.86 15.5283 20.965 14.9217 20.965 14.245V13.7783C20.965 13.1017 20.86 12.495 20.6617 11.9467C20.4633 11.3983 20.1717 10.9317 19.7983 10.5467ZM19.3433 14.2333C19.3433 14.7233 19.285 15.155 19.18 15.5517C19.0633 15.9367 18.9 16.275 18.6783 16.5433C18.4567 16.8117 18.1767 17.0217 17.85 17.1617C17.5117 17.3017 17.1267 17.3717 16.695 17.3717H15.6333V10.64H16.765C17.605 10.64 18.2467 10.9083 18.6783 11.445C19.1217 11.9817 19.3433 12.7517 19.3433 13.7667V14.2333ZM14.0117 0L13.2417 0.035L17.6867 4.48L19.2383 2.92833C23.0533 4.73667 25.7833 8.435 26.1917 12.8217H27.9417C27.3583 5.64667 21.35 0 14.0117 0Z" fill="white"/>
</svg>
